<svg width="16" height="14" viewBox="0 0 16 14" fill="none" xmlns="http://www.w3.org/2000/svg">
<path fill-rule="evenodd" clip-rule="evenodd" d="M7.30681 1.40439e-08C6.27831 8.4615e-05 5.26473 0.237646 4.35066 0.692863C3.43658 1.14808 2.64851 1.80775 2.05219 2.61685C1.45587 3.42594 1.06859 4.36099 0.922669 5.34398C0.776747 6.32698 0.876412 7.32941 1.21335 8.26765C1.55028 9.20589 2.11472 10.0527 2.85957 10.7375C3.60442 11.4223 4.50807 11.9252 5.49515 12.2042C6.48222 12.4832 7.52409 12.5303 8.53383 12.3414C9.54357 12.1526 10.4919 11.7334 11.2997 11.1187L14.0709 13.7943C14.214 13.9278 14.4057 14.0016 14.6047 14C14.8036 13.9983 14.9939 13.9213 15.1346 13.7854C15.2753 13.6496 15.3551 13.4658 15.3568 13.2737C15.3586 13.0816 15.2821 12.8965 15.1439 12.7584L12.3727 10.0827C13.1224 9.16444 13.5892 8.06091 13.7196 6.89843C13.8501 5.73595 13.639 4.56149 13.1104 3.50946C12.5818 2.45743 11.7572 1.57033 10.7308 0.949684C9.70446 0.329038 8.51786 -7.84986e-05 7.30681 1.40439e-08ZM2.37451 6.22753C2.37451 4.96451 2.89416 3.75321 3.81914 2.86012C4.74413 1.96703 5.99868 1.4653 7.30681 1.4653C8.61494 1.4653 9.86949 1.96703 10.7945 2.86012C11.7195 3.75321 12.2391 4.96451 12.2391 6.22753C12.2391 7.49055 11.7195 8.70184 10.7945 9.59493C9.86949 10.488 8.61494 10.9898 7.30681 10.9898C5.99868 10.9898 4.74413 10.488 3.81914 9.59493C2.89416 8.70184 2.37451 7.49055 2.37451 6.22753Z" fill="#0E092D"/>
</svg>
