<svg version="1.1" id="a" xmlns="http://www.w3.org/2000/svg" x="0" y="0" viewBox="0 0 389 389" style="enable-background:new 0 0 389 389" xml:space="preserve"><style>.st0{fill:#0086ff}.st1{fill:#93eaff}</style><path class="st0" d="M72.8 250.7h-48v112.6H137v-48.4H72.8v-64.2zM314.1 251.2v63.7h-64.3v48.4H362V250.7h-48.5l.6.5zM24.9 138.6h48.5l-.5-.5V74.5h64.3V26H24.9v112.6zM249.9 26v48.4h64.3v64.2h48V26H249.9z"/><path class="st1" d="m243.5 138.6-64.3-64.2h70.6V26H137.1v48.4l64.3 64.2h42.1zM185.6 250.7h-42.2l53.2 53.2 10.5 11H137v48.4h112.8v-49l-32.1-31.6-32.1-32zM314.1 138.6v70L303 197.5l-53.2-53.2V187l31.6 31.6 32.1 32.1H362V138.6h-47.9zM137.1 202.3l-63.8-63.7H24.9v112h48v-70l64.3 64.2v-42.5z"/></svg>