<svg width="20" height="20" viewBox="0 0 20 20" fill="none" xmlns="http://www.w3.org/2000/svg">
<path fill-rule="evenodd" clip-rule="evenodd" d="M10 20C15.5228 20 20 15.5228 20 10C20 4.47715 15.5228 0 10 0C4.47715 0 0 4.47715 0 10C0 15.5228 4.47715 20 10 20ZM8.79813 5H5.48622V5.51593H4.84707V6.08918H4.1498V8.03822H3.33642V8.72533H2.6638V9.52866H2V12.4522H2.6638V13.6725H3.51387V14H15.2142V13.6152H16.8857V12.9006H18V9.54751H16.8856V7.73353H15.8939V6.66242H15.1895V6.08918H12.633V6.66242H11.9938V7.40764H11.2026V7.01893H10.7569V5.97452H9.86149V5.51593H8.79813V5Z" fill="#A27DB6"/>
</svg>
