<svg width="19" height="18" viewBox="0 0 19 18" fill="none" xmlns="http://www.w3.org/2000/svg">
<path d="M17.2977 7.81998H4.04785L9.83652 2.03131C10.2991 1.56869 10.2991 0.809517 9.83652 0.346898C9.72679 0.236933 9.59643 0.14969 9.45294 0.0901647C9.30944 0.0306393 9.15561 0 9.00025 0C8.8449 0 8.69107 0.0306393 8.54757 0.0901647C8.40407 0.14969 8.27372 0.236933 8.16398 0.346898L0.346898 8.16398C0.236933 8.27372 0.149691 8.40407 0.0901653 8.54757C0.0306399 8.69107 0 8.8449 0 9.00025C0 9.15561 0.0306399 9.30944 0.0901653 9.45294C0.149691 9.59643 0.236933 9.72679 0.346898 9.83652L8.16398 17.6536C8.2738 17.7634 8.40418 17.8505 8.54766 17.91C8.69115 17.9694 8.84494 18 9.00025 18C9.15556 18 9.30935 17.9694 9.45284 17.91C9.59633 17.8505 9.7267 17.7634 9.83652 17.6536C9.94635 17.5438 10.0335 17.4134 10.0929 17.2699C10.1523 17.1264 10.1829 16.9726 10.1829 16.8173C10.1829 16.662 10.1523 16.5082 10.0929 16.3647C10.0335 16.2213 9.94635 16.0909 9.83652 15.9811L4.04785 10.1924H17.2977C17.9502 10.1924 18.4839 9.65859 18.4839 9.00618C18.4839 8.35377 17.9502 7.81998 17.2977 7.81998Z" fill="#BDA3CB"/>
</svg>
