<svg width="15" height="15" viewBox="0 0 15 15" fill="none" xmlns="http://www.w3.org/2000/svg">
<path d="M5.33333 1.86667H3.77333C2.80267 1.86667 2.31733 1.86667 1.9464 2.0556C1.62023 2.22173 1.35506 2.4869 1.18893 2.81307C1 3.184 1 3.66933 1 4.64V11.2267C1 12.1973 1 12.6827 1.18893 13.0536C1.35511 13.3797 1.62027 13.6449 1.9464 13.8111C2.31647 14 2.8018 14 3.77073 14H10.3626C11.3315 14 11.816 14 12.1861 13.8111C12.5128 13.6447 12.778 13.3795 12.9444 13.0536C13.1333 12.6827 13.1333 12.1982 13.1333 11.2293V9.66667M14 5.33333V1M14 1H9.66667M14 1L7.93333 7.06667" stroke="#A27EB7" stroke-width="2" stroke-linecap="round" stroke-linejoin="round"/>
</svg>
