<svg width="24" height="28" viewBox="0 0 24 28" fill="none" xmlns="http://www.w3.org/2000/svg">
<path d="M11.5745 2.41183C10.8569 2.41183 10.1567 2.47974 9.47625 2.6046C9.45 2.60898 9.42811 2.58927 9.42811 2.56298V0.105148C9.42811 0.0481928 9.38217 0 9.32309 0H6.70405C6.64716 0 6.59902 0.0460022 6.59902 0.105148V3.50931C6.59902 3.52464 6.59027 3.53998 6.57496 3.54655C2.68687 5.41292 0 9.39321 0 14C0 18.6068 2.68687 22.5849 6.57496 24.4534C6.59027 24.46 6.59902 24.4754 6.59902 24.4907V27.8949C6.59902 27.9518 6.64497 28 6.70405 28H9.32309C9.37998 28 9.42811 27.954 9.42811 27.8949V25.4348C9.42811 25.4085 9.45218 25.3888 9.47625 25.3932C10.1567 25.5181 10.8569 25.586 11.5745 25.586C17.9679 25.586 23.1491 20.3987 23.1491 13.9978C23.1491 7.59693 17.9657 2.41183 11.5745 2.41183ZM2.72407 14C2.72407 10.988 4.23379 8.32421 6.53338 6.7207C6.56183 6.70099 6.60121 6.7207 6.60121 6.75575V21.2443C6.60121 21.2793 6.56183 21.299 6.53338 21.2793C4.23379 19.678 2.72407 17.012 2.72407 14V14ZM12.5548 22.8083C11.4958 22.9244 10.4718 22.8499 9.50907 22.6177C9.46093 22.6068 9.42811 22.563 9.42811 22.5148V5.4874C9.42811 5.43921 9.46093 5.3954 9.50907 5.38445C10.172 5.22453 10.8634 5.1391 11.5767 5.1391C16.6332 5.1391 20.7138 9.40635 20.4119 14.5345C20.1603 18.8105 16.8083 22.3417 12.557 22.8083H12.5548Z" fill="#0E092D"/>
</svg>
