<svg width="95" height="140" viewBox="0 0 95 140" fill="none" xmlns="http://www.w3.org/2000/svg">
<path d="M47.2873 71.0156C52.334 71.0156 56.4421 66.9101 56.4421 61.8607C56.4421 56.8113 52.3327 52.7059 47.2873 52.7059C42.2366 52.7059 38.1324 56.814 38.1324 61.8607C38.1324 66.9075 42.2366 71.0156 47.2873 71.0156ZM47.2873 56.3536C50.3245 56.3536 52.7957 58.8248 52.7957 61.862C52.7957 64.898 50.3245 67.3705 47.2873 67.3705C44.25 67.3705 41.7788 64.8993 41.7788 61.862C41.7775 58.8248 44.25 56.3536 47.2873 56.3536Z" fill="white"/>
<path d="M33.0847 92.5474C38.1354 92.5474 42.2395 88.4419 42.2395 83.3925C42.2395 78.3431 38.1341 74.2377 33.0847 74.2377C28.0379 74.2377 23.9298 78.3457 23.9298 83.3925C23.9298 88.4393 28.0379 92.5474 33.0847 92.5474ZM33.0847 77.8841C36.1219 77.8841 38.5931 80.3553 38.5931 83.3925C38.5931 86.4285 36.1219 88.901 33.0847 88.901C30.0474 88.901 27.5762 86.4298 27.5762 83.3925C27.5749 80.3566 30.0474 77.8841 33.0847 77.8841V77.8841Z" fill="white"/>
<path d="M52.3373 83.3948C52.3373 88.4442 56.4467 92.5496 61.4921 92.5496C66.5428 92.5496 70.647 88.4442 70.647 83.3948C70.647 78.3454 66.5428 74.2374 61.4921 74.2374C56.4454 74.2374 52.3373 78.3454 52.3373 83.3948V83.3948ZM61.4921 77.885C64.5294 77.885 67.0006 80.3563 67.0006 83.3935C67.0006 86.4294 64.5294 88.902 61.4921 88.902C58.4549 88.902 55.9837 86.4308 55.9837 83.3935C55.9837 80.3576 58.4536 77.885 61.4921 77.885V77.885Z" fill="white"/>
<path d="M20.8292 114.935H9.83273C4.40827 114.935 0 119.346 0 124.767L1.63434 139.999H29.0266L30.647 124.964L30.6584 124.769C30.6597 119.346 26.2501 114.935 20.8292 114.935L20.8292 114.935ZM25.7499 136.352H4.90774L3.64731 124.675C3.69692 121.307 6.45306 118.583 9.83368 118.583H20.8301C24.2108 118.583 26.9618 121.308 27.0126 124.675L25.7499 136.352Z" fill="white"/>
<path d="M15.3331 112.679C20.3798 112.679 24.4879 108.574 24.4879 103.524C24.4879 98.4749 20.3785 94.3694 15.3331 94.3694C10.2824 94.3694 6.17822 98.4775 6.17822 103.524C6.17822 108.572 10.2824 112.679 15.3331 112.679V112.679ZM15.3331 98.0158C18.3703 98.0158 20.8415 100.487 20.8415 103.524C20.8415 106.56 18.3703 109.033 15.3331 109.033C12.2958 109.033 9.8246 106.561 9.8246 103.524C9.82205 100.488 12.2946 98.0158 15.3331 98.0158Z" fill="white"/>
<path d="M52.7866 114.935H41.7902C36.3657 114.935 31.9575 119.346 31.9575 124.767L33.5918 139.999H60.984L62.6044 124.964L62.6159 124.769C62.6146 119.346 58.2063 114.935 52.7867 114.935L52.7866 114.935ZM57.7074 136.352H36.8639L35.6035 124.675C35.6531 121.307 38.4092 118.583 41.7898 118.583H52.7863C56.1669 118.583 58.9179 121.308 58.9687 124.675L57.7074 136.352Z" fill="white"/>
<path d="M47.2873 94.3707C42.2366 94.3707 38.1324 98.4788 38.1324 103.526C38.1324 108.572 42.2379 112.68 47.2873 112.68C52.334 112.68 56.4421 108.575 56.4421 103.526C56.4434 98.4775 52.3353 94.3707 47.2873 94.3707ZM47.2873 109.034C44.2501 109.034 41.7788 106.563 41.7788 103.526C41.7788 100.488 44.25 98.0171 47.2873 98.0171C50.3245 98.0171 52.7957 100.488 52.7957 103.526C52.7957 106.564 50.3258 109.034 47.2873 109.034Z" fill="white"/>
<path d="M84.7473 114.935H73.7509C68.3264 114.935 63.9182 119.346 63.9182 124.767L65.5525 139.999L92.9448 140L94.5651 124.965L94.5766 124.771C94.5766 119.346 90.1683 114.935 84.7474 114.935L84.7473 114.935ZM89.6681 136.352H68.8259L67.5655 124.675C67.6151 121.307 70.3712 118.583 73.7519 118.583H84.7483C88.129 118.583 90.8799 121.308 90.9307 124.675L89.6681 136.352Z" fill="white"/>
<path d="M79.248 112.679C84.2947 112.679 88.4028 108.574 88.4028 103.524C88.4028 98.4749 84.2934 94.3694 79.248 94.3694C74.1973 94.3694 70.0931 98.4775 70.0931 103.524C70.0931 108.572 74.1999 112.679 79.248 112.679ZM79.248 98.0158C82.2852 98.0158 84.7564 100.487 84.7564 103.524C84.7564 106.56 82.2852 109.033 79.248 109.033C76.2107 109.033 73.7395 106.561 73.7395 103.524C73.7395 100.488 76.2107 98.0158 79.248 98.0158Z" fill="white"/>
<path d="M69.1559 0H24.7263C19.6741 0 14.8988 2.00721 11.3006 5.6056C7.70219 9.204 5.7647 14.0486 5.7647 19.1695C5.7647 29.7579 14.2772 38.339 24.7266 38.339H28.1174V48.9274C28.1174 49.8967 28.7401 50.727 29.6399 50.9346C30.5398 51.1422 31.5081 50.7965 31.9928 49.9652L38.5677 38.3391H55.3158L61.8908 49.9652C62.2364 50.6575 62.9286 51.0031 63.6904 51.0031C63.898 51.0031 64.036 51.0031 64.2436 50.9336C65.1434 50.726 65.7662 49.8957 65.7662 48.9264L65.7652 38.34H69.156C74.2082 38.34 78.9836 36.3328 82.5817 32.7344C86.1801 29.136 88.1176 24.2914 88.1176 19.1705C88.1186 8.58117 79.6059 0.000260224 69.1557 0.000260224L69.1559 0ZM79.6061 29.7581C76.8381 32.5955 73.1008 34.1183 69.1559 34.1183H63.6884C62.5115 34.1183 61.6127 35.0181 61.6127 36.194V40.9691L58.3601 35.1559C58.0144 34.5332 57.3222 34.1181 56.5604 34.1181H37.3215C36.5607 34.1181 35.8684 34.5332 35.5219 35.1559L32.2692 40.9691V36.194C32.2692 35.0171 31.3694 34.1183 30.1935 34.1183H24.726C16.5601 34.1183 9.91571 27.4054 9.91571 19.1003C9.91571 15.0869 11.4383 11.3496 14.2759 8.51195C17.0438 5.67455 20.7811 4.1518 24.726 4.1518H69.2248C77.3907 4.1518 84.0351 10.8647 84.0351 19.1698C83.9666 23.1841 82.444 26.9214 79.6065 29.7581H79.6061Z" fill="white"/>
</svg>
