<svg fill="none" height="103" viewBox="0 0 455 103" width="455" xmlns="http://www.w3.org/2000/svg" xmlns:xlink="http://www.w3.org/1999/xlink"><linearGradient id="a" gradientUnits="userSpaceOnUse" x1="220.883" x2="197.188" y1="46.927" y2="88.8895"><stop offset="0" stop-color="#612aad"/><stop offset="1" stop-color="#624fd8"/></linearGradient><linearGradient id="b" gradientUnits="userSpaceOnUse" x1="144.865" x2="160.354" y1="24.491" y2="40.4439"><stop offset="0" stop-color="#5635a4"/><stop offset="1" stop-color="#2f2894"/></linearGradient><linearGradient id="c" gradientUnits="userSpaceOnUse" x1="51.0477" x2="51.0477" y1="24.7644" y2="72.0335"><stop offset="0" stop-color="#9b79cc"/><stop offset="1" stop-color="#7745bf"/></linearGradient><mask id="d" fill="#000" height="75" maskUnits="userSpaceOnUse" width="68" x="17.0122" y="10.8203"><path d="m17.0122 10.8203h68v75h-68z" fill="#fff"/><path clip-rule="evenodd" d="m51.0479 48.3984-29.0815-16.82c.597-1.0335 1.4485-1.8972 2.4735-2.5088l23.0744-13.3217c2.1909-1.2368 4.8764-1.2368 7.0673 0l23.0744 13.3217c1.0248.6113 1.8764 1.477 2.4735 2.5088.6184 1.0884.947 2.3181.9541 3.569v26.5021c-.0023 1.2391-.3299 2.4559-.95 3.5287-.6202 1.0728-1.511 1.964-2.5836 2.5844l-23.3925 13.4985c-.9718.4593-2.0354.6996-3.1096.7067v.0001c-1.1141-.0017-2.2134-.2553-3.2156-.7421l-23.2865-13.4631c-1.0725-.6204-1.9634-1.5116-2.5835-2.5844s-.9478-2.2896-.9501-3.5287v-26.5021c.0058-1.2519.3344-2.4812.9541-3.569l29.0816 16.82z" fill="#000" fill-rule="evenodd"/></mask><mask id="e" height="68" maskUnits="userSpaceOnUse" width="61" x="21" y="14"><path clip-rule="evenodd" d="m51.0479 48.3984-29.0815-16.82c.597-1.0335 1.4485-1.8972 2.4735-2.5088l23.0744-13.3217c2.1909-1.2368 4.8764-1.2368 7.0673 0l23.0744 13.3217c1.0248.6113 1.8764 1.477 2.4735 2.5088.6184 1.0884.947 2.3181.9541 3.569v26.5021c-.0023 1.2391-.3299 2.4559-.95 3.5287-.6202 1.0728-1.511 1.964-2.5836 2.5844l-23.3925 13.4985c-.9718.4593-2.0354.6996-3.1096.7067v.0001c-1.1141-.0017-2.2134-.2553-3.2156-.7421l-23.2865-13.4631c-1.0725-.6204-1.9634-1.5116-2.5835-2.5844s-.9478-2.2896-.9501-3.5287v-26.5021c.0058-1.2519.3344-2.4812.9541-3.569l29.0816 16.82z" fill="#d9d9d9" fill-rule="evenodd"/></mask><path d="m112.519 67.1902-3.296-22.4h3.456l2.688 20.064h.512l3.456-20.064h6.048l3.456 20.064h.512l2.656-20.064h3.456l-3.296 22.4h-6.048l-3.52-20.352h-.512l-3.488 20.352zm30.381.448c-1.13 0-2.144-.192-3.04-.576-.874-.384-1.578-.9493-2.112-1.696-.512-.7467-.768-1.6533-.768-2.72 0-1.088.256-1.984.768-2.688.534-.7253 1.248-1.2693 2.144-1.632.918-.3627 1.952-.544 3.104-.544h4.8v-1.024c0-.9173-.277-1.6533-.832-2.208-.554-.5547-1.408-.832-2.56-.832-1.13 0-1.994.2667-2.592.8-.597.5333-.992 1.2267-1.184 2.08l-3.072-.992c.256-.8533.662-1.6213 1.216-2.304.576-.704 1.334-1.2693 2.272-1.696.939-.4267 2.07-.64 3.392-.64 2.048 0 3.659.5227 4.832 1.568 1.174 1.0453 1.76 2.528 1.76 4.448v6.496c0 .64.299.96.896.96h1.344v2.752h-2.464c-.746 0-1.354-.192-1.824-.576-.469-.384-.704-.9067-.704-1.568v-.096h-.48c-.17.32-.426.6933-.768 1.12-.341.4267-.842.8-1.504 1.12-.661.2987-1.536.448-2.624.448zm.48-2.72c1.323 0 2.39-.3733 3.2-1.12.811-.768 1.216-1.8133 1.216-3.136v-.32h-4.608c-.874 0-1.578.192-2.112.576-.533.3627-.8.9067-.8 1.632s.278 1.3013.832 1.728c.555.4267 1.312.64 2.272.64zm18.712 2.72c-2.005 0-3.669-.448-4.992-1.344-1.322-.896-2.133-2.2507-2.432-4.064l3.072-.736c.171.8747.459 1.568.864 2.08.406.512.907.8747 1.504 1.088.619.2133 1.28.32 1.984.32 1.046 0 1.846-.2027 2.4-.608.576-.4053.864-.928.864-1.568s-.266-1.1093-.8-1.408c-.533-.2987-1.322-.544-2.368-.736l-1.088-.192c-1.066-.192-2.037-.4693-2.912-.832-.874-.3627-1.568-.864-2.08-1.504s-.768-1.4613-.768-2.464c0-1.4933.555-2.6453 1.664-3.456 1.11-.832 2.582-1.248 4.416-1.248 1.771 0 3.222.4053 4.352 1.216 1.152.7893 1.899 1.8667 2.24 3.232l-3.072.864c-.192-.96-.597-1.632-1.216-2.016-.618-.4053-1.386-.608-2.304-.608-.896 0-1.6.1707-2.112.512-.512.32-.768.7787-.768 1.376 0 .64.246 1.1093.736 1.408.512.2987 1.195.5227 2.048.672l1.12.192c1.131.192 2.166.4587 3.104.8.939.3413 1.675.832 2.208 1.472.555.64.832 1.4933.832 2.56 0 1.5787-.586 2.8053-1.76 3.68-1.173.8747-2.752 1.312-4.736 1.312zm9.629-.448v-15.776h3.232v1.856h.512c.298-.5547.778-1.0453 1.44-1.472.661-.4267 1.557-.64 2.688-.64 1.173 0 2.112.2453 2.816.736.725.4693 1.269 1.0773 1.632 1.824h.512c.362-.7253.885-1.3333 1.568-1.824.704-.4907 1.696-.736 2.976-.736 1.024 0 1.93.2133 2.72.64.789.4053 1.418 1.024 1.888 1.856.469.8107.704 1.824.704 3.04v10.496h-3.296v-10.24c0-.96-.267-1.696-.8-2.208-.512-.5333-1.248-.8-2.208-.8-1.024 0-1.846.3307-2.464.992-.619.6613-.928 1.6107-.928 2.848v9.408h-3.296v-10.24c0-.96-.267-1.696-.8-2.208-.512-.5333-1.248-.8-2.208-.8-1.024 0-1.846.3307-2.464.992-.619.6613-.928 1.6107-.928 2.848v9.408zm34.057 0v-22.4h13.824v3.136h-10.368v6.464h9.536v3.136h-9.536v9.664zm22.612.288c-1.195 0-2.261-.2667-3.2-.8s-1.675-1.2907-2.208-2.272-.8-2.1547-.8-3.52v-9.472h3.296v9.248c0 1.3653.341 2.3787 1.024 3.04.683.64 1.632.96 2.848.96 1.344 0 2.421-.448 3.232-1.344.832-.9173 1.248-2.2293 1.248-3.936v-7.968h3.296v15.776h-3.232v-2.368h-.512c-.299.64-.832 1.248-1.6 1.824-.768.5547-1.899.832-3.392.832zm12.888-.288v-15.776h3.232v2.368h.512c.299-.64.832-1.2373 1.6-1.792s1.91-.832 3.424-.832c1.195 0 2.251.2667 3.168.8.939.5333 1.675 1.2907 2.208 2.272.534.96.8 2.1227.8 3.488v9.472h-3.296v-9.216c0-1.3653-.341-2.368-1.024-3.008-.682-.6613-1.621-.992-2.816-.992-1.365 0-2.464.448-3.296 1.344-.81.896-1.216 2.1973-1.216 3.904v7.968zm26.296.448c-1.515 0-2.891-.32-4.128-.96-1.216-.64-2.187-1.568-2.912-2.784-.704-1.216-1.056-2.6773-1.056-4.384v-.416c0-1.7067.352-3.1573 1.056-4.352.725-1.216 1.696-2.144 2.912-2.784 1.237-.6613 2.613-.992 4.128-.992 1.514 0 2.805.2773 3.872.832 1.066.5547 1.92 1.2907 2.56 2.208.661.9173 1.088 1.9307 1.28 3.04l-3.2.672c-.107-.704-.331-1.344-.672-1.92-.342-.576-.822-1.0347-1.44-1.376-.619-.3413-1.398-.512-2.336-.512-.918 0-1.75.2133-2.496.64-.726.4053-1.302 1.0027-1.728 1.792-.427.768-.64 1.7067-.64 2.816v.288c0 1.1093.213 2.0587.64 2.848.426.7893 1.002 1.3867 1.728 1.792.746.4053 1.578.608 2.496.608 1.386 0 2.442-.352 3.168-1.056.725-.7253 1.184-1.6427 1.376-2.752l3.2.736c-.256 1.088-.715 2.0907-1.376 3.008-.64.9173-1.494 1.6533-2.56 2.208-1.067.5333-2.358.8-3.872.8zm16.215-.448c-.96 0-1.728-.288-2.304-.864-.554-.576-.832-1.344-.832-2.304v-9.824h-4.352v-2.784h4.352v-5.216h3.296v5.216h4.704v2.784h-4.704v9.248c0 .64.299.96.896.96h3.296v2.784zm8.017 0v-15.776h3.296v15.776zm1.664-17.92c-.64 0-1.184-.2027-1.632-.608-.427-.4267-.64-.9707-.64-1.632s.213-1.1947.64-1.6c.448-.4267.992-.64 1.632-.64.661 0 1.205.2133 1.632.64.426.4053.64.9387.64 1.6s-.214 1.2053-.64 1.632c-.427.4053-.971.608-1.632.608zm13.195 18.368c-1.578 0-2.986-.32-4.224-.96-1.216-.6613-2.176-1.6-2.88-2.816s-1.056-2.656-1.056-4.32v-.48c0-1.664.352-3.0933 1.056-4.288.704-1.216 1.664-2.1547 2.88-2.816 1.238-.6613 2.646-.992 4.224-.992 1.579 0 2.987.3307 4.224.992 1.238.6613 2.208 1.6 2.912 2.816.704 1.1947 1.056 2.624 1.056 4.288v.48c0 1.664-.352 3.104-1.056 4.32s-1.674 2.1547-2.912 2.816c-1.237.64-2.645.96-4.224.96zm0-2.944c1.451 0 2.624-.4587 3.52-1.376.918-.9387 1.376-2.2293 1.376-3.872v-.288c0-1.6427-.448-2.9227-1.344-3.84-.896-.9387-2.08-1.408-3.552-1.408-1.429 0-2.602.4693-3.52 1.408-.896.9173-1.344 2.1973-1.344 3.84v.288c0 1.6427.448 2.9333 1.344 3.872.918.9173 2.091 1.376 3.52 1.376zm11.576 2.496v-15.776h3.232v2.368h.512c.298-.64.832-1.2373 1.6-1.792s1.909-.832 3.424-.832c1.194 0 2.25.2667 3.168.8.938.5333 1.674 1.2907 2.208 2.272.533.96.8 2.1227.8 3.488v9.472h-3.296v-9.216c0-1.3653-.342-2.368-1.024-3.008-.683-.6613-1.622-.992-2.816-.992-1.366 0-2.464.448-3.296 1.344-.811.896-1.216 2.1973-1.216 3.904v7.968zm25.431.448c-2.005 0-3.669-.448-4.992-1.344-1.322-.896-2.133-2.2507-2.432-4.064l3.072-.736c.171.8747.459 1.568.864 2.08.406.512.907.8747 1.504 1.088.619.2133 1.28.32 1.984.32 1.046 0 1.846-.2027 2.4-.608.576-.4053.864-.928.864-1.568s-.266-1.1093-.8-1.408c-.533-.2987-1.322-.544-2.368-.736l-1.088-.192c-1.066-.192-2.037-.4693-2.912-.832-.874-.3627-1.568-.864-2.08-1.504s-.768-1.4613-.768-2.464c0-1.4933.555-2.6453 1.664-3.456 1.11-.832 2.582-1.248 4.416-1.248 1.771 0 3.222.4053 4.352 1.216 1.152.7893 1.899 1.8667 2.24 3.232l-3.072.864c-.192-.96-.597-1.632-1.216-2.016-.618-.4053-1.386-.608-2.304-.608-.896 0-1.6.1707-2.112.512-.512.32-.768.7787-.768 1.376 0 .64.246 1.1093.736 1.408.512.2987 1.195.5227 2.048.672l1.12.192c1.131.192 2.166.4587 3.104.8.939.3413 1.675.832 2.208 1.472.555.64.832 1.4933.832 2.56 0 1.5787-.586 2.8053-1.76 3.68-1.173.8747-2.752 1.312-4.736 1.312z" fill="url(#a)"/><g fill="url(#b)"><path d="m119.494 29.7921h-6.716v1.7278h4.647v1.6249h-4.647v3.2112h-1.617v-8.1888h.184 1.433 6.716z"/><path d="m129.567 29.7921h-6.716v1.7278h4.646v1.6249h-4.646v1.582h6.716v1.6292h-6.716-1.434-.183v-8.1888h1.617 6.716z"/><path d="m139.631 36.356h-2.505l-2.85-2.4181h-1.352v2.4181h-1.618v-8.1888h5.462c.515 0 .983.13 1.404.3901.424.2601.761.6088 1.011 1.0461.253.4373.38.9204.38 1.4491 0 .5288-.125 1.0118-.376 1.4492-.25.4344-.584.7802-1.002 1.0375-.419.2572-.887.3901-1.404.3987zm-6.707-6.5682v2.5338h3.844c.324 0 .602-.1243.832-.373s.346-.5474.346-.8961-.116-.6459-.346-.8917c-.23-.2487-.508-.373-.832-.373z"/><path d="m148.884 28.1543h.811v8.1888h-1.617v-5.1276l-2.022 3.5499h-1.046l-2.022-3.5499v5.1276h-1.617v-8.1888h.81.93l2.42 4.253 2.423-4.253z"/><path d="m159.729 28.1672-3.294 4.4159v3.7729h-1.617v-3.7986l-3.383-4.3902h2.048l2.146 2.7824 2.078-2.7824z"/><path d="m164.481 36.356c.569 0 1.103-.1058 1.6-.3173.501-.2144.939-.5088 1.315-.8832.378-.3744.674-.8089.887-1.3033.216-.4974.324-1.0276.324-1.5906 0-.566-.108-1.0962-.324-1.5906-.213-.4945-.509-.929-.887-1.3034-.376-.3744-.814-.6674-1.315-.8789-.497-.2144-1.031-.3215-1.6-.3215s-1.103.1071-1.604.3215c-.498.2115-.936.5045-1.314.8789-.376.3744-.671.8089-.888 1.3034-.213.4944-.32 1.0246-.32 1.5906 0 .563.107 1.0932.32 1.5906.217.4944.512.9289.888 1.3033.378.3744.816.6688 1.314.8832.501.2115 1.035.3173 1.604.3173zm0-6.5554c.455 0 .871.1115 1.246.3344.376.2201.674.5174.896.8918.225.3716.337.7832.337 1.2348s-.112.8646-.337 1.239c-.222.3716-.52.6688-.896.8918-.375.2201-.791.3301-1.246.3301s-.87-.11-1.246-.3301c-.375-.223-.675-.5202-.9-.8918-.222-.3744-.333-.7874-.333-1.239s.111-.8632.333-1.2348c.225-.3744.525-.6717.9-.8918.376-.2229.791-.3344 1.246-.3344z"/><path d="m177.05 28.1672h1.617v8.1888h-.811-1.045l-4.851-5.9208v5.9208h-1.617v-8.1888h1.856l4.851 5.9208z"/></g><path d="m21.9664 31.5784-3.2234-1.8618c-1.0278 1.7795-.4192 4.0553 1.3597 5.0841zm29.0815 16.82.6659 3.6624c1.5356-.2792 2.7339-1.4867 3.0015-3.0243.2675-1.5377-.4526-3.0789-1.8037-3.8604zm-26.608-19.3288-1.8612-3.2237c-.0154.0089-.0308.0179-.0462.0271zm23.0744-13.3217-1.8299-3.2416c-.0104.0059-.0208.0119-.0312.0179zm7.0673 0 1.8611-3.2237c-.0104-.006-.0208-.012-.0312-.0179zm23.0744 13.3217 1.9071-3.1968c-.0153-.0091-.0306-.0181-.0459-.0269zm2.4735 2.5088 3.2365-1.8389c-.0049-.0086-.0098-.0171-.0147-.0257zm.9541 3.569h3.7224c0-.007 0-.014 0-.0211zm0 26.5021 3.7224.007v-.007zm-.95 3.5287 3.2227 1.8628zm-2.5836 2.5844 1.8604 3.2242.0036-.0021zm-23.3925 13.4985 1.5908 3.3653c.0918-.0434.1817-.0905.2696-.1412zm-3.1096.7067-.0245-3.7223c-2.0462.0134-3.6979 1.676-3.6979 3.7223zm0 .0001-.0054 3.7224c.9881.0014 1.9364-.3901 2.6356-1.0883.6993-.6983 1.0922-1.6459 1.0922-2.6341zm-3.2156-.7421-1.8631 3.2226c.0774.0448.1565.0867.2369.1258zm-23.2865-13.4631-1.864 3.2221.0009.0005zm-3.5336-6.1131h-3.7224v.007zm0-26.5021-3.7224-.0174v.0174zm.9541-3.569 1.8637-3.2222c-.8583-.4964-1.8792-.6299-2.8362-.3709-.9571.259-1.7713.8892-2.262 1.7507zm29.0816 16.82-1.8637 3.2223c1.1517.6661 2.5712.6669 3.7236.0021 1.1525-.6647 1.8625-1.894 1.8625-3.2244zm0-.0001-.6659-3.6623c-1.77.3218-3.0565 1.8633-3.0565 3.6623zm-30.9452-13.5977 29.0816 16.82 3.7273-6.4446-29.0816-16.8199zm2.4298-8.9277c-1.5703.937-2.8749 2.2601-3.7895 3.8436l6.4467 3.7237c.2794-.4837.6778-.8879 1.1575-1.1741zm23.1207-13.3488-23.0745 13.3217 3.7223 6.4474 23.0745-13.3217zm10.7583-.0179c-3.3266-1.8779-7.4005-1.8779-10.7271 0l3.6598 6.4831c1.0552-.5956 2.3523-.5956 3.4074 0zm23.1057 13.3396-23.0745-13.3217-3.7223 6.4474 23.0744 13.3217zm3.8341 3.8679c-.9128-1.5771-2.2156-2.9028-3.7882-3.841l-3.8141 6.3936c.4768.2844.8773.6902 1.1588 1.1767zm-6.4582 3.7036c.3034.5341.4647 1.1378.4682 1.751l7.4447-.0421c-.0107-1.8886-.5067-3.7442-1.44-5.3868zm.4681 1.73v26.5021h7.4448v-26.5021zm0 26.4951c-.0011.5874-.1564 1.1642-.4504 1.6728l6.4455 3.7257c.9462-1.637 1.4461-3.4937 1.4497-5.3845zm-.4504 1.6728c-.294.5086-.7163.9311-1.2248 1.2252l3.728 6.4442c1.6366-.9468 2.9961-2.3067 3.9423-3.9437zm-1.2213 1.2232-23.3925 13.4984 3.7209 6.4483 23.3925-13.4984zm-23.1229 13.3572c-.4775.2258-1.0061.3462-1.5432.3498l.049 7.4446c1.6114-.0106 3.21-.3707 4.6759-1.0637zm2.2037 4.0722v-.0001h-7.4448v.0001zm-8.5642 2.6063c1.5073.7321 3.1607 1.1136 4.8364 1.1161l.0109-7.4448c-.5525-.0008-1.0978-.1266-1.5948-.3681zm-23.5234-13.5889 23.2865 13.4631 3.7263-6.4452-23.2865-13.463zm-3.9432-3.9442c.9463 1.637 2.3057 2.9969 3.9423 3.9437l3.728-6.4441c-.5085-.2942-.9308-.7167-1.2248-1.2253zm-1.4497-5.3845c.0036 1.8908.5035 3.7475 1.4497 5.3845l6.4455-3.7257c-.294-.5086-.4493-1.0854-.4504-1.6728zm0-26.5091v26.5021h7.4448v-26.5021zm1.442-5.4114c-.9365 1.6441-1.4331 3.502-1.442 5.394l7.4448.0347c.0028-.6117.1634-1.2123.4662-1.7439zm34.1797 15.4401-29.0815-16.8199-3.7274 6.4445 29.0816 16.82zm1.8588 3.2223v-.0001h-7.4448v.0001zm-3.0565 3.6623-1.3317-7.3247h-.0001z" fill="#4233a2" mask="url(#d)"/><g mask="url(#e)"><path d="m35.338 81.825 35.1769-20.1011-21.9623-11.1673-34.6185 19.5428z" fill="#ddb5f4"/><path d="m38.358 31.5723-38.736415 22.1351 24.184615 12.2972 38.1215-21.5202z" fill="#e6d3f1"/></g><path clip-rule="evenodd" d="m51.0477 48.402-20.4722-11.8405c.4202-.7277 1.0197-1.3356 1.7412-1.7662l16.2435-9.3779c1.5423-.8707 3.4328-.8707 4.9751 0l16.2434 9.3779c.7214.4304 1.3209 1.0398 1.7413 1.7662h-.0001c.4354.7661.6667 1.6318.6717 2.5124v18.6563c-.0017.8723-.2323 1.7289-.6688 2.4841-.4366.7552-1.0637 1.3825-1.8187 1.8193l-16.4674 9.5023c-.6841.3234-1.4328.4926-2.189.4976-.7843-.0012-1.5582-.1798-2.2636-.5224l-16.3928-9.4774c-.755-.4368-1.3822-1.0642-1.8187-1.8194s-.6671-1.6117-.6688-2.484v-18.6564c.0041-.8813.2354-1.7466.6716-2.5124z" fill="url(#c)" fill-rule="evenodd"/><path d="m60.2375 48.2433-11.8425 12.6884c-.1255.1339-.2911.2234-.4719.2549s-.367.0034-.5304-.0802c-.1634-.0835-.2952-.218-.3755-.383s-.1048-.3517-.0697-.5319l1.5501-7.7536-6.0936-2.2881c-.1308-.049-.2475-.1296-.3397-.2347-.0921-.105-.1567-.2313-.1881-.3674-.0315-.1362-.0287-.278.0081-.4128s.1063-.2584.2025-.3597l11.8425-12.6884c.1255-.1339.2911-.2234.4719-.2549s.367-.0034.5304.0802c.1634.0835.2952.218.3756.383.0803.1651.1047.3517.0696.5319l-1.5543 7.7621 6.0936 2.285c.1299.0492.2456.1298.337.2344s.1556.2302.187.3655c.0313.1354.0289.2764-.0072.4106-.0361.1341-.1046.2574-.1996.3587z" fill="#fff"/><path d="m55.3963 34.5464-9.0735 9.674c-.1723.1837-.0559.4851.1951.5054l7.0053.5671c.1518.0123.2888-.0909.319-.2402l2.0682-10.2411c.0599-.2968-.3069-.4861-.5141-.2652z" fill="#fff"/><path d="m47.0329 62.3594 9.0735-9.674c.1723-.1837.0559-.4851-.1951-.5054l-7.0053-.5671c-.1518-.0123-.2888.0909-.319.2402l-2.0682 10.241c-.06.2968.3069.4861.5141.2653z" fill="#fff"/></svg>